<svg width="19" height="18" viewBox="0 0 19 18" fill="none" xmlns="http://www.w3.org/2000/svg">
<path d="M9.17939 16.4959L9.17929 16.4959C8.89743 16.3248 8.58131 16.1184 8.24078 15.889C7.27124 15.2335 6.29776 14.5062 5.39567 13.6796C2.74223 11.2464 1.17969 8.62604 1.17969 5.88313C1.17969 3.30858 3.26643 1.22217 5.84064 1.22217C7.38177 1.22217 8.80773 1.9987 9.68558 3.18526L9.88231 3.45117L10.0844 3.18934C10.9898 2.01666 12.4244 1.22217 13.8767 1.22217C16.451 1.22217 18.5377 3.30858 18.5377 5.88313C18.5377 8.62604 16.9752 11.2464 14.3217 13.6796C13.4197 14.5062 12.4462 15.2335 11.4767 15.889C11.1361 16.1183 10.82 16.3247 10.5381 16.4959L10.538 16.4959C10.4481 16.5506 10.3794 16.5938 10.3247 16.6283C10.2636 16.6667 10.22 16.6942 10.1841 16.7141L10.1836 16.7143C9.98953 16.8223 9.72787 16.8223 9.53378 16.7143L9.53331 16.7141C9.49734 16.6942 9.45378 16.6667 9.39269 16.6283C9.338 16.5938 9.26927 16.5506 9.17939 16.4959Z" fill="#FF56AD" stroke="#FF56AD" stroke-width="0.5"/>
</svg>
