<svg width="19" height="18" viewBox="0 0 19 18" fill="none" xmlns="http://www.w3.org/2000/svg">
<path d="M18.0011 8.99663C18.0011 13.8273 14.0851 17.7433 9.25444 17.7432C4.42381 17.7432 0.50781 13.8273 0.507811 8.99662C0.507812 4.166 4.42381 0.250001 9.25444 0.250002C14.0851 0.250002 18.0011 4.166 18.0011 8.99663Z" fill="white" stroke="#C1C1C1" stroke-width="0.5"/>
<path d="M9.46402 10.026L9.46402 11.595C9.46402 11.7644 9.55892 11.9205 9.72115 11.9962C9.87053 12.069 10.0449 12.0528 10.1767 11.965L10.1768 11.9653L10.187 11.9577L15.0869 8.31994L15.0939 8.31472L15.1006 8.30902C15.1902 8.2322 15.2689 8.10652 15.2689 7.95723C15.2689 7.80524 15.1938 7.67863 15.1006 7.59869L15.0939 7.59299L15.0869 7.58777L10.187 3.94998L10.1872 3.94972L10.1767 3.94269C10.0449 3.85487 9.87052 3.83875 9.72115 3.91153C9.55891 3.98717 9.46402 4.14327 9.46402 4.31269L9.46402 5.99948C9.28433 6.02218 9.06104 6.05665 8.80842 6.11385L8.80787 6.11398C7.86714 6.3292 6.49137 6.82252 5.34123 7.96916C4.18505 9.1218 3.27909 10.9127 3.24806 13.6777L3.24805 13.6777L3.24805 13.6805C3.24805 13.8776 3.37493 14.065 3.58024 14.1174C3.63517 14.1334 3.68391 14.1331 3.6983 14.133C3.69917 14.133 3.69991 14.133 3.70052 14.133C3.86536 14.133 4.0187 14.0431 4.09664 13.8926C4.15318 13.7933 4.58094 13.052 5.35388 12.2389C6.1775 11.3724 7.37653 10.4421 8.91433 10.1121C9.09187 10.0766 9.27508 10.0473 9.46402 10.026Z" fill="#FEFEFE" stroke="#C1C1C1" stroke-width="0.5"/>
</svg>
